<?xml version="1.0" standalone="no"?><!DOCTYPE svg PUBLIC "-//W3C//DTD SVG 1.1//EN" "http://www.w3.org/Graphics/SVG/1.1/DTD/svg11.dtd"><svg class="icon" width="16px" height="16.00px" viewBox="0 0 1024 1024" version="1.1" xmlns="http://www.w3.org/2000/svg"><path fill="#8a8a8a" d="M512 170.666667c116.394667 0 227.669333 61.013333 331.349333 161.322666 35.413333 34.218667 67.413333 70.741333 95.573334 107.306667 17.024 22.016 29.098667 39.381333 35.669333 49.706667l14.72 22.997333-14.72 22.997333c-6.570667 10.325333-18.645333 27.690667-35.669333 49.706667-28.16 36.565333-60.16 73.088-95.573334 107.306667C739.669333 792.277333 628.394667 853.333333 512 853.333333c-116.394667 0-227.669333-61.013333-331.349333-161.322666a994.346667 994.346667 0 0 1-95.573334-107.306667 745.984 745.984 0 0 1-35.669333-49.706667L34.688 512l14.72-22.997333c6.570667-10.325333 18.645333-27.690667 35.669333-49.706667 28.16-36.565333 60.16-73.088 95.573334-107.306667C284.330667 231.722667 395.605333 170.666667 512 170.666667z m359.338667 320.725333a909.994667 909.994667 0 0 0-87.296-98.048C694.741333 306.944 601.856 256 512 256 422.186667 256 329.258667 306.944 239.957333 393.344A909.994667 909.994667 0 0 0 137.216 512a909.994667 909.994667 0 0 0 102.741333 118.656C329.258667 717.056 422.144 768 512 768c89.813333 0 182.741333-50.944 272.042667-137.344A909.994667 909.994667 0 0 0 886.784 512c-4.693333-6.485333-9.856-13.397333-15.445333-20.608zM512 682.666667a170.666667 170.666667 0 1 1 0-341.333334 170.666667 170.666667 0 0 1 0 341.333334z m0-85.333334a85.333333 85.333333 0 1 0 0-170.666666 85.333333 85.333333 0 0 0 0 170.666666z" /></svg>