<?xml version="1.0" standalone="no"?><!DOCTYPE svg PUBLIC "-//W3C//DTD SVG 1.1//EN" "http://www.w3.org/Graphics/SVG/1.1/DTD/svg11.dtd"><svg class="icon" width="16px" height="16.00px" viewBox="0 0 1024 1024" version="1.1" xmlns="http://www.w3.org/2000/svg"><path fill="#eaa1c3" d="M64 334.9v392l227.7-12.6 366.7 215V94.7L279 334.9zM738.5 324.4c-12.6-8.4-29.9-5.1-38.3 7.6-8.4 12.6-5.1 29.9 7.6 38.3 0.5 0.4 178.9 116.2 1.3 290.6-11 10.7-11.1 28.2-0.4 39.1 10.7 11 28.2 11.1 39.1 0.4 226.6-222.7-8.6-375.5-9.3-376zM960 497.4l-0.1-1.9c-17.4-179.3-158.6-258.7-159-258.9-13.2-7.6-30.2-3.1-37.8 10.1-7.6 13.2-3.1 30.2 10.1 37.8 0.3 0.1 116.6 65.6 131.7 215.4 0.2 15.4 0.7 192.5-127.5 251.4-13.9 6.3-20 22.7-13.7 36.6s22.7 20 36.6 13.7C967.7 724.7 960 498 960 497.4z" /></svg>